# xmcd
#
# Track frame offsets: 
#        150
#        11592
#        29542
#        43109
#        55800
#        70986
#        88709
#        100246
#        112035
#        124153
#        136939
#        149760
#        162320
#        176591
#
# Disc length: 2525 seconds
#
# Revision: 0
# Processed by: cddbd v1.5.2PL0 Copyright (c) Steve Scherf et al.
# Submitted via: ExactAudioCopyFreeDBPlugin 1.0
#
DISCID=cc09db0e
DTITLE=Various Artist - Tex Mex ' Besame Mucho
DYEAR=1999
DGENRE=Tex Mex
TTITLE0=Los Agues - Adios Muchachos
TTITLE1=Trio Los Duques - La Malaguena Salerosa
TTITLE2=Los Nuevos Nobles - Siempre Te Quiero
TTITLE3=Los Agues - Noches Sin Te
TTITLE4=Trio Estrella - Pensando Sin Te
TTITLE5=Gary Hobbs - Mentiras
TTITLE6=Los Agues - Sentimiento De Un Amor
TTITLE7=Trio Los Duques - Llorassas
TTITLE8=Rudy Davila - Tu Tambien Fuiste Buena
TTITLE9=Los Tres Agues - Borinquen
TTITLE10=Trio Estrella - Sequire Mi Viaje
TTITLE11=Los Compadres De Sabinas - Madre Ingrata
TTITLE12=Los Agues - Perfida
TTITLE13=Trio Los Duques - Besame Mucho
EXTD=
EXTT0=
EXTT1=
EXTT2=
EXTT3=
EXTT4=
EXTT5=
EXTT6=
EXTT7=
EXTT8=
EXTT9=
EXTT10=
EXTT11=
EXTT12=
EXTT13=
PLAYORDER=
